<?xml version="1.0" encoding="UTF-8"?>
<svg version="1.1" xmlns="http://www.w3.org/2000/svg" width="400" height="400">
<path d="M0 0 C1.35611389 0.00081573 1.35611389 0.00081573 2.73962402 0.00164795 C17.1934953 0.0415546 31.03859859 0.90098884 45.125 4.375 C46.01445312 4.58930664 46.90390625 4.80361328 47.8203125 5.02441406 C87.42999714 14.82695489 126.1091861 36.40505137 152.125 68.375 C153.03774688 69.46355301 153.95050868 70.55209352 154.86328125 71.640625 C162.13659037 80.41462658 168.43221017 89.50643625 174.125 99.375 C174.74737549 100.44113525 174.74737549 100.44113525 175.38232422 101.52880859 C186.79407625 121.31181126 194.12715288 142.91815538 198.125 165.375 C198.30901367 166.38401367 198.49302734 167.39302734 198.68261719 168.43261719 C200.36473364 178.70222296 200.52352743 188.86418586 200.5 199.25 C200.49918427 200.60611389 200.49918427 200.60611389 200.49835205 201.98962402 C200.4584454 216.4434953 199.59901116 230.28859859 196.125 244.375 C195.91069336 245.26445312 195.69638672 246.15390625 195.47558594 247.0703125 C185.67304511 286.67999714 164.09494863 325.3591861 132.125 351.375 C131.03644699 352.28774688 129.94790648 353.20050868 128.859375 354.11328125 C120.08537342 361.38659037 110.99356375 367.68221017 101.125 373.375 C100.05886475 373.99737549 100.05886475 373.99737549 98.97119141 374.63232422 C79.18818874 386.04407625 57.58184462 393.37715288 35.125 397.375 C34.11598633 397.55901367 33.10697266 397.74302734 32.06738281 397.93261719 C21.79777704 399.61473364 11.63581414 399.77352743 1.25 399.75 C-0.10611389 399.74918427 -0.10611389 399.74918427 -1.48962402 399.74835205 C-15.9434953 399.7084454 -29.78859859 398.84901116 -43.875 395.375 C-44.76445312 395.16069336 -45.65390625 394.94638672 -46.5703125 394.72558594 C-86.17999714 384.92304511 -124.8591861 363.34494863 -150.875 331.375 C-151.78774688 330.28644699 -152.70050868 329.19790648 -153.61328125 328.109375 C-160.88659037 319.33537342 -167.18221017 310.24356375 -172.875 300.375 C-173.49737549 299.30886475 -173.49737549 299.30886475 -174.13232422 298.22119141 C-185.54407625 278.43818874 -192.87715288 256.83184462 -196.875 234.375 C-197.05901367 233.36598633 -197.24302734 232.35697266 -197.43261719 231.31738281 C-199.11473364 221.04777704 -199.27352743 210.88581414 -199.25 200.5 C-199.24945618 199.59592407 -199.24891235 198.69184814 -199.24835205 197.76037598 C-199.2084454 183.3065047 -198.34901116 169.46140141 -194.875 155.375 C-194.66069336 154.48554688 -194.44638672 153.59609375 -194.22558594 152.6796875 C-184.42304511 113.07000286 -162.84494863 74.3908139 -130.875 48.375 C-129.78644699 47.46225312 -128.69790648 46.54949132 -127.609375 45.63671875 C-118.83537342 38.36340963 -109.74356375 32.06778983 -99.875 26.375 C-98.80886475 25.75262451 -98.80886475 25.75262451 -97.72119141 25.11767578 C-77.93818874 13.70592375 -56.33184462 6.37284712 -33.875 2.375 C-32.86598633 2.19098633 -31.85697266 2.00697266 -30.81738281 1.81738281 C-20.54777704 0.13526636 -10.38581414 -0.02352743 0 0 Z " fill="#FEFEFE" transform="translate(198.875,-0.375)"/>
<path d="M0 0 C16.51860962 0 31.2152499 1.34835368 47 6 C47.79390137 6.23315918 48.58780273 6.46631836 49.40576172 6.70654297 C79.36533859 15.69383732 103.34099739 30.66461089 126 52 C126.71027344 52.65613281 127.42054688 53.31226563 128.15234375 53.98828125 C139.07539761 64.41990937 147.40823192 77.0393078 155 90 C155.36222656 90.60924316 155.72445312 91.21848633 156.09765625 91.84619141 C162.28365032 102.35496269 166.36724289 113.38435574 170 125 C170.21140625 125.67562988 170.4228125 126.35125977 170.640625 127.04736328 C171.94720244 131.32794933 173.02165258 135.6336717 174 140 C174.22429687 140.9600293 174.22429687 140.9600293 174.453125 141.93945312 C184.63937423 187.20679347 172.88109264 235.46057933 148.5859375 274.16015625 C122.97829202 313.19521992 81.90165079 340.48091991 36.45556641 350.19042969 C35.35647949 350.41633789 34.25739258 350.64224609 33.125 350.875 C32.12259277 351.0905957 31.12018555 351.30619141 30.08740234 351.52832031 C19.71343336 353.5119903 11.08668129 353 0 353 C0 323.96 0 294.92 0 265 C10.395 263.515 10.395 263.515 21 262 C27.4649931 260.06050207 33.04994204 258.32342042 38.9375 255.3125 C39.61844727 254.96799805 40.29939453 254.62349609 41.00097656 254.26855469 C47.97571799 250.64484306 54.66821312 246.42766564 60.171875 240.765625 C62 239 62 239 64 239 C64.25652344 238.42636719 64.51304687 237.85273438 64.77734375 237.26171875 C66.1201079 234.77781958 67.70246334 232.93557214 69.5625 230.8125 C73.24528461 226.28294375 76.08676024 221.57423288 78.8125 216.4375 C79.18511963 215.74180908 79.55773926 215.04611816 79.94165039 214.3293457 C86.1258569 202.37694838 88.39092952 190.08871733 88.3125 176.6875 C88.30758545 175.68348145 88.3026709 174.67946289 88.29760742 173.64501953 C88.17340982 165.73586131 87.35024807 158.59310914 85 151 C84.67128906 149.93007812 84.34257812 148.86015625 84.00390625 147.7578125 C76.77190521 126.88760882 60.46078704 108.56547316 40.9296875 98.40234375 C26.98692308 91.69465449 16.14531155 90.61453115 0 89 C0 59.63 0 30.26 0 0 Z " fill="#000000" transform="translate(162,23)"/>
</svg>
